<!DOCTYPE svg PUBLIC "-//W3C//DTD SVG 1.1//EN" "http://www.w3.org/Graphics/SVG/1.1/DTD/svg11.dtd">
<!-- Uploaded to: SVG Repo, www.svgrepo.com, Transformed by: SVG Repo Mixer Tools -->
<svg version="1.1" id="Layer_1" xmlns="http://www.w3.org/2000/svg" xmlns:xlink="http://www.w3.org/1999/xlink" viewBox="0 0 512 512" xml:space="preserve" width="800px" height="800px" fill="#000000">
<g id="SVGRepo_bgCarrier" stroke-width="0"/>
<g id="SVGRepo_tracerCarrier" stroke-linecap="round" stroke-linejoin="round"/>
<g id="SVGRepo_iconCarrier"> <rect x="427.359" y="35.822" style="fill:#9A4C00;" width="30.177" height="90.578"/> <rect x="442.448" y="35.822" style="fill:#723700;" width="15.088" height="90.578"/> <path style="fill:#97ce03;" d="M442.875,99.017l-4.148,30.877c-1.209-0.063-2.22-0.083-3.168-0.083 c-18.497,0-34.743,35.681-37.901,54.011c-3.866,22.415-19.716,52.636-21.331,55.668c-23.728,47.342-66.683,86.243-127.666,115.609 c-48.54,23.384-97.789,35.566-130.563,41.673l-3.637,0.677l-3.554-1.021c-14.923-4.304-29.085-9.629-42.35-15.913 c-7.399-3.501-14.516-7.295-21.331-11.38c-2.376-1.417-4.679-2.876-6.909-4.366c-15.788-10.525-27.99-22.655-36.358-36.16L0,322.221 l21.457-60.41l13.047,2.334c0.24,0.042,11.817,2.063,30.533,3.72c9.077,0.802,19.831,1.521,31.784,1.876 c15.225,0.459,32.398,0.344,50.52-0.896c55.501-3.793,131.719-19.258,179.614-71.341l0.302-0.313 c6.18-6.357,23.655-25.865,30.304-39.589c4.846-10.014,15.6-26.313,29.981-39.287C405.902,101.737,425.035,95.067,442.875,99.017z"/> <path style="fill:#b9d95f;" d="M509.85,224.036c-5.179,36.984-17.601,71.862-36.921,103.667 c-18.247,30.022-42.204,56.627-71.195,79.052c-56.46,43.684-127.895,68.329-201.154,69.392c-1.511,0.021-3.001,0.031-4.502,0.031 c-17.434,0-34.305-1.49-50.395-4.46c-6.346-1.157-12.568-2.553-18.653-4.168c-4.356-1.157-8.566-2.459-12.609-3.887 c-15.975-5.659-29.439-13.401-40.162-23.113l-5.565-5.044l1.772-29.001l2.147-34.983l13.193-1.365 c0.094-0.01,10.306-1.084,26.573-4.116c0.667-0.125,1.355-0.25,2.042-0.386c8.795-1.678,19.424-3.939,31.263-6.93 c63.703-16.079,162.68-53.209,202.779-133.408l0.208-0.386c4.168-7.816,15.59-31.388,18.174-46.425 c4.502-26.083,27.219-79.959,68.715-79.959c1.459,0,3.001,0.042,4.71,0.125c0.782,0.042,1.553,0.083,2.313,0.146 c20.289,1.511,36.629,9.598,48.613,24.083C515.603,152.403,513.362,198.932,509.85,224.036z"/> <path style="fill:#97ce03;" d="M509.85,224.036c-5.179,36.984-17.601,71.862-36.921,103.667 c-18.247,30.022-42.204,56.627-71.195,79.052c-56.46,43.684-127.895,68.329-201.154,69.392c-1.511,0.021-3.001,0.031-4.502,0.031 c-17.434,0-34.305-1.49-50.395-4.46c-6.346-1.157-12.568-2.553-18.653-4.168c-4.356-1.157-8.566-2.459-12.609-3.887 c-15.975-5.659-29.439-13.401-40.162-23.113l-5.565-5.044l1.772-29.001c400.64,49.687,371.639-301.767,371.639-301.767 c0.094-2.063,0.261-4.033,0.479-5.919c20.289,1.511,36.629,9.598,48.613,24.083C515.603,152.403,513.362,198.932,509.85,224.036z"/> </g>
</svg>