<!DOCTYPE svg PUBLIC "-//W3C//DTD SVG 1.1//EN" "http://www.w3.org/Graphics/SVG/1.1/DTD/svg11.dtd">
<!-- Uploaded to: SVG Repo, www.svgrepo.com, Transformed by: SVG Repo Mixer Tools -->
<svg height="800px" width="800px" version="1.1" id="Layer_1" xmlns="http://www.w3.org/2000/svg" xmlns:xlink="http://www.w3.org/1999/xlink" viewBox="0 0 511.996 511.996" xml:space="preserve" fill="#000000">
<g id="SVGRepo_bgCarrier" stroke-width="0"/>
<g id="SVGRepo_tracerCarrier" stroke-linecap="round" stroke-linejoin="round"/>
<g id="SVGRepo_iconCarrier"> <path style="fill:#434A54;" d="M254.624,0c0,0-0.008,0-0.016,0H211.96c-5.891,0-10.672,4.781-10.672,10.672 s4.781,10.656,10.672,10.656h42.664l0,0c5.891,0,10.663-4.766,10.663-10.656S260.515,0,254.624,0z"/> <path style="fill:#E6E9ED;" d="M230.937,287.373l-7.188-20.078c0.383-0.141,38.233-13.781,79.577-36.031 c53.405-28.75,88.421-58.624,101.233-86.405c14.266-30.906,16.656-55.156,6.719-68.297c-7.812-10.344-23.859-14.719-42.906-11.734 c-17.453,2.75-32.952,11.531-36.046,20.406l-20.141-7.016c3.078-8.828,10.266-16.844,20.812-23.172 c9.078-5.453,20.468-9.453,32.062-11.281c26.953-4.25,50.594,3.203,63.234,19.938c7.422,9.812,10.906,22.297,10.359,37.094 c-0.578,15.25-5.531,33.078-14.719,53c-15,32.516-52.266,64.952-110.765,96.39C270.459,273.154,232.53,286.81,230.937,287.373z"/> <polygon style="fill:#F5F7FA;" points="73.289,42.671 98.366,106.671 126.624,354.389 339.951,354.389 371.95,42.671 "/> <polygon style="fill:#95ce04;" points="103.233,149.327 126.624,354.389 339.951,354.389 360.997,149.327 "/> <g> <path style="fill:#26292c;" d="M361.278,501.324c0,5.891-4.766,10.672-10.656,10.672s-10.671-4.781-10.671-10.672 s4.781-10.656,10.671-10.656C356.513,490.668,361.278,495.434,361.278,501.324z"/> <path style="fill:#26292c;" d="M125.96,501.324c0,5.891-4.781,10.672-10.672,10.672s-10.664-4.781-10.664-10.672 s4.773-10.656,10.664-10.656S125.96,495.434,125.96,501.324z"/> </g> <path style="fill:#6c757d;" d="M375.325,406.622l-28.077-77.249c-4.016-11.016-16.891-20.047-28.625-20.047H147.96 c-11.734,0-24.617,9.031-28.625,20.047l-28.086,77.249c-4.016,11.016-7.288,29.641-7.288,41.375v32 c0,11.733,9.593,21.327,21.327,21.327h255.99c11.734,0,21.344-9.594,21.344-21.327v-32 C382.622,436.263,379.341,417.638,375.325,406.622z"/> <path style="fill:#E6E9ED;" d="M371.95,42.671V21.328c0-5.891-4.781-10.656-10.672-10.656h-255.99 c-5.891,0-10.664,4.766-10.664,10.656v21.343H371.95z"/> <path style="fill:#26292c;" d="M233.288,354.389c-29.453,0-53.328,23.875-53.328,53.327c0,29.453,23.875,53.344,53.328,53.344 c29.452,0,53.335-23.891,53.335-53.344C286.623,378.264,262.74,354.389,233.288,354.389z M233.288,439.716 c-17.641,0-32-14.359-32-32c0-17.64,14.359-31.999,32-31.999c17.648,0,31.999,14.359,31.999,31.999 C265.287,425.356,250.937,439.716,233.288,439.716z"/> <g> <path style="fill:#434A54;" d="M222.624,127.999h0.008h21.312c0,0,0.008,0,0.016,0c5.891,0,10.664-4.781,10.664-10.672 s-4.773-10.656-10.664-10.656l0,0h-21.336l0,0c-5.891,0-10.664,4.766-10.664,10.656S216.733,127.999,222.624,127.999z"/> <path style="fill:#434A54;" d="M243.96,149.327L243.96,149.327h-21.336l0,0c-5.891,0-10.664,4.781-10.664,10.672 s4.773,10.672,10.664,10.672h0.008h21.312c0,0,0.008,0,0.016,0c5.891,0,10.664-4.781,10.664-10.672S249.851,149.327,243.96,149.327 z"/> <path style="fill:#434A54;" d="M243.96,191.999L243.96,191.999h-21.336l0,0c-5.891,0-10.664,4.781-10.664,10.671 c0,5.891,4.773,10.656,10.664,10.656h0.008h21.312c0,0,0.008,0,0.016,0c5.891,0,10.664-4.766,10.664-10.656 C254.624,196.78,249.851,191.999,243.96,191.999z"/> <path style="fill:#434A54;" d="M243.96,234.67L243.96,234.67h-21.336l0,0c-5.891,0-10.664,4.766-10.664,10.656 s4.773,10.672,10.664,10.672h0.008h21.312c0,0,0.008,0,0.016,0c5.891,0,10.664-4.781,10.664-10.672S249.851,234.67,243.96,234.67z"/> </g> <path style="fill:#E6E9ED;" d="M233.288,450.388c-23.523,0-42.664-19.141-42.664-42.672c0-23.53,19.141-42.655,42.664-42.655 c23.531,0,42.663,19.125,42.663,42.655C275.951,431.247,256.819,450.388,233.288,450.388z"/> <path style="fill:#CCD1D9;" d="M243.96,386.389c0,5.891-4.781,10.671-10.672,10.671s-10.664-4.78-10.664-10.671 s4.773-10.672,10.664-10.672S243.96,380.498,243.96,386.389z"/> </g>
</svg>