<!DOCTYPE svg PUBLIC "-//W3C//DTD SVG 1.1//EN" "http://www.w3.org/Graphics/SVG/1.1/DTD/svg11.dtd">
<!-- Uploaded to: SVG Repo, www.svgrepo.com, Transformed by: SVG Repo Mixer Tools -->
<svg height="800px" width="800px" version="1.1" id="Layer_1" xmlns="http://www.w3.org/2000/svg" xmlns:xlink="http://www.w3.org/1999/xlink" viewBox="0 0 512.001 512.001" xml:space="preserve" fill="#000000">
<g id="SVGRepo_bgCarrier" stroke-width="0"/>
<g id="SVGRepo_tracerCarrier" stroke-linecap="round" stroke-linejoin="round"/>
<g id="SVGRepo_iconCarrier"> <polygon style="fill:#26292c;" points="382.855,370.221 191.901,370.221 154.983,471.605 182.39,471.605 182.39,497.951 392.368,497.951 392.368,471.605 419.775,471.605 "/> <g> <path style="fill:#91ce0c;" d="M396.057,365.415c-2.02-5.548-7.296-9.241-13.2-9.241H203.321L160.597,151.48 c-1.585-7.596-9.031-12.461-16.623-10.882c-7.596,1.586-12.468,9.028-10.882,16.623l44.239,211.955l-35.549,97.622 c-1.568,4.307-0.937,9.109,1.693,12.865c2.629,3.755,6.925,5.992,11.509,5.992h13.358v12.298c0,7.758,6.29,14.049,14.049,14.049 h209.978c7.759,0,14.049-6.291,14.049-14.049v-12.298h13.358c4.584,0,8.88-2.237,11.509-5.992c2.63-3.755,3.261-8.557,1.693-12.865 L396.057,365.415z M392.368,457.556c-7.759,0-14.049,6.291-14.049,14.049v12.298H196.439v-12.298 c0-7.758-6.29-14.049-14.049-14.049h-7.341l26.687-73.285H373.02l26.687,73.285H392.368z"/> <path style="fill:#91ce0c;" d="M457.478,56.069c-2.668-3.282-6.672-5.187-10.902-5.187H65.425c-4.285,0-8.337,1.957-11.002,5.312 c-2.665,3.355-3.653,7.745-2.682,11.918l36.527,157.086c1.756,7.558,9.305,12.252,16.866,10.503 c7.557-1.758,12.259-9.309,10.502-16.866L83.115,78.98h346.177L379.93,315.476c-1.585,7.595,3.286,15.037,10.882,16.623 c0.968,0.202,1.933,0.299,2.884,0.299c6.512,0,12.355-4.555,13.738-11.182l52.893-253.415 C461.194,63.66,460.146,59.351,457.478,56.069z"/> <path style="fill:#91ce0c;" d="M403.746,28.098H171.011c-7.759,0-14.049-6.291-14.049-14.049S163.252,0,171.011,0h232.736 c7.759,0,14.049,6.291,14.049,14.049S411.505,28.098,403.746,28.098z"/> </g> </g>
</svg>