<!DOCTYPE svg PUBLIC "-//W3C//DTD SVG 1.1//EN" "http://www.w3.org/Graphics/SVG/1.1/DTD/svg11.dtd">
<!-- Uploaded to: SVG Repo, www.svgrepo.com, Transformed by: SVG Repo Mixer Tools -->
<svg height="800px" width="800px" version="1.1" id="Layer_1" xmlns="http://www.w3.org/2000/svg" xmlns:xlink="http://www.w3.org/1999/xlink" viewBox="0 0 82.363 82.363" xml:space="preserve" fill="#000000">
<g id="SVGRepo_bgCarrier" stroke-width="0"/>
<g id="SVGRepo_tracerCarrier" stroke-linecap="round" stroke-linejoin="round"/>
<g id="SVGRepo_iconCarrier"> <g> <g> <path style="fill:#96ce05;" d="M41.408,34.266c0,0-19.928-11.582-15.462-34.266C25.946,0,43.855,8.904,41.408,34.266z"/> </g> <g> <path style="fill:#96ce05;" d="M40.955,34.266c0,0,19.928-11.582,15.462-34.266C56.417,0,38.508,8.904,40.955,34.266z"/> </g> <g> <path style="fill:#95ce07;" d="M44.504,26.184c0,1.795-1.455,3.25-3.25,3.25h-0.5c-1.795,0-3.25-1.455-3.25-3.25v-22.5 c0-1.795,1.455-3.25,3.25-3.25h0.5c1.795,0,3.25,1.455,3.25,3.25V26.184z"/> </g> <g> <path style="fill:#FF9600;" d="M47.916,74.82c-0.734,10.057-12.234,10.057-13.737,0l-8.483-49.053 c0-8.327,6.75-15.334,15.077-15.334h0.549c8.327,0,15.077,7.007,15.077,15.334L47.916,74.82z"/> </g> </g> </g>
</svg>