<!DOCTYPE svg PUBLIC "-//W3C//DTD SVG 1.1//EN" "http://www.w3.org/Graphics/SVG/1.1/DTD/svg11.dtd">
<!-- Uploaded to: SVG Repo, www.svgrepo.com, Transformed by: SVG Repo Mixer Tools -->
<svg width="800px" height="800px" viewBox="-163.84 -163.84 1351.68 1351.68" class="icon" version="1.1" xmlns="http://www.w3.org/2000/svg" fill="#000000">
<g id="SVGRepo_bgCarrier" stroke-width="0"/>
<g id="SVGRepo_tracerCarrier" stroke-linecap="round" stroke-linejoin="round"/>
<g id="SVGRepo_iconCarrier">
<path d="M571.24864 83.71712c249.08288 0 451.01056 201.92256 451.01056 451.01056 0 249.08288-201.92256 451.01056-451.01056 451.01056V83.71712z" fill="#90ce0e"/>
<path d="M571.24864 83.71712c-249.08288 0-451.01056 201.92256-451.01056 451.01056 0 249.08288 201.92256 451.01056 451.01056 451.01056V83.71712z" fill="#9D4608"/>
<path d="M571.24864 144.55296c-215.48544 0-390.17472 174.68928-390.17472 390.17472s174.68928 390.17472 390.17472 390.17472V144.55296z" fill="#FFFFFF"/>
<path d="M491.55072 494.0288L252.35456 192.44032c-6.03648-7.60832-15.19104-10.73664-24.19712-10.0352a28.22656 28.22656 0 0 0-5.77536-0.60416H39.92576a28.09856 28.09856 0 0 0-28.10368 28.10368 28.09856 28.09856 0 0 0 28.10368 28.10368h176.82432l230.7584 290.94912a28.1088 28.1088 0 0 0 44.04224-34.92864z" fill="#8fce10"/>
</g>
</svg>