<!DOCTYPE svg PUBLIC "-//W3C//DTD SVG 1.1//EN" "http://www.w3.org/Graphics/SVG/1.1/DTD/svg11.dtd">
<!-- Uploaded to: SVG Repo, www.svgrepo.com, Transformed by: SVG Repo Mixer Tools -->
<svg fill="#96ce02" height="130px" width="130px" version="1.1" id="Layer_1" xmlns="http://www.w3.org/2000/svg" xmlns:xlink="http://www.w3.org/1999/xlink" viewBox="-45.96 -45.96 602.56 602.56" xml:space="preserve" stroke="#96ce02" stroke-width="13.276769999999999">
<g id="SVGRepo_bgCarrier" stroke-width="0"/>
<g id="SVGRepo_tracerCarrier" stroke-linecap="round" stroke-linejoin="round"/>
<g id="SVGRepo_iconCarrier"> <g> <g> <path d="M469.733,107.445c-16-38.4-44.8-65.6-88-83.2c-14.4-6.4-33.6-8-56-8c-3.2,0-6.4,0-9.6,0c0-8-4.8-16-14.4-16 c-8-1.6-17.6,4.8-17.6,14.4c-3.2,28.8-16,48-22.4,57.6c-17.6-4.8-35.2-8-52.8-8c-22.4,0-43.2,3.2-64,11.2 c-115.2,43.2-112,139.2-108.8,201.6c0,14.4,1.6,27.2,0,36.8l-3.2,20.8c-6.4,81.6-12.8,158.4,72,174.4c4.8,1.6,9.6,1.6,16,1.6 c72,0,228.8-54.4,254.4-222.4c14.4-88-12.8-140.8-38.4-169.6c-12.8-14.4-28.8-27.2-46.4-36.8c4.8-6.4,9.6-14.4,14.4-25.6 c38.4,35.2,100.8,118.4,123.2,220.8c1.6,6.4,6.4,11.2,14.4,12.8h1.6c6.4,0,11.2-3.2,14.4-9.6 C460.132,277.045,500.132,185.845,469.733,107.445z M312.933,139.445c28.8,33.6,40,84.8,30.4,144c-24,160-184,195.2-222.4,195.2 c-4.8,0-8,0-9.6,0c-54.4-11.2-54.4-56-46.4-140.8l1.6-22.4c1.6-12.8,0-25.6,0-40c-3.2-65.6-6.4-137.6,88-172.8 c16-6.4,35.2-9.6,52.8-9.6C250.533,93.045,288.933,110.645,312.933,139.445z M445.733,216.245c-25.6-72-67.2-132.8-102.4-169.6 c9.6,3.2,19.2,4.8,27.2,6.4c35.2,14.4,57.6,36.8,70.4,65.6C453.733,150.645,452.133,187.445,445.733,216.245z"/> </g> </g> </g>
</svg>