<!DOCTYPE svg PUBLIC "-//W3C//DTD SVG 1.1//EN" "http://www.w3.org/Graphics/SVG/1.1/DTD/svg11.dtd">
<!-- Uploaded to: SVG Repo, www.svgrepo.com, Transformed by: SVG Repo Mixer Tools -->
<svg xmlns="http://www.w3.org/2000/svg" xmlns:xlink="http://www.w3.org/1999/xlink" version="1.1" id="Layer_1" width="800px" height="800px" viewBox="0 0 329.992 329.992" xml:space="preserve" fill="#000000">
<g id="SVGRepo_bgCarrier" stroke-width="0"/>
<g id="SVGRepo_tracerCarrier" stroke-linecap="round" stroke-linejoin="round"/>
<g id="SVGRepo_iconCarrier"> <g> <g> <path style="fill:#9B4C00;" d="M164.996,0c-8.285,0-15,6.717-15,15v19.615c4.895-1.006,9.898-1.539,15-1.539 s10.105,0.533,15,1.539V15C179.996,6.717,173.28,0,164.996,0z"/> <path style="fill:#671F03;" d="M179.996,34.615V15c0-8.283-6.716-15-15-15v33.076C170.098,33.076,175.102,33.609,179.996,34.615z"/> </g> <path style="fill:#6c757d;" d="M179.996,24.615c-4.895-1.006-9.898-1.539-15-1.539s-10.105,0.533-15,1.539 C89.641,37.014,46.152,122.529,46.152,199.611c0,40.068,11.989,73.551,34.67,96.832c21.078,21.635,50.973,33.549,84.174,33.549 s63.094-11.914,84.172-33.549c22.683-23.281,34.672-56.764,34.672-96.832C283.84,122.529,240.352,37.014,179.996,24.615z"/> <path style="fill:#26292c;" d="M179.996,24.615c-4.895-1.006-9.898-1.539-15-1.539v30v246.916v30 c33.201,0,63.094-11.914,84.172-33.549c22.683-23.281,34.672-56.764,34.672-96.832C283.84,122.529,240.352,37.014,179.996,24.615z"/> <g> <path style="fill:#96ce02;" d="M225.617,97.975c-17.396-28.533-39.49-44.898-60.62-44.898h-0.001 c-21.131,0-43.227,16.365-60.622,44.898c-17.673,28.988-28.222,66.982-28.222,101.637c0,61.916,34.043,100.381,88.844,100.381 h0.001c54.8,0,88.843-38.465,88.843-100.381C253.84,164.957,243.289,126.963,225.617,97.975z"/> <path style="fill:#638604;" d="M225.617,97.975c-17.396-28.533-39.49-44.898-60.62-44.898h-0.001v246.916h0.001 c54.8,0,88.843-38.465,88.843-100.381C253.84,164.957,243.289,126.963,225.617,97.975z"/> </g> <g> <path style="fill:#9B4C00;" d="M164.998,161.535L164.998,161.535c-27.359,0-49.616,22.256-49.616,49.613 s22.257,49.615,49.615,49.615h0.001c27.356,0,49.612-22.258,49.612-49.615S192.354,161.535,164.998,161.535z"/> <path style="fill:#671F03;" d="M214.61,211.148c0-27.357-22.256-49.613-49.612-49.613v99.229 C192.354,260.764,214.61,238.506,214.61,211.148z"/> </g> <rect x="164.996" y="161.535" style="fill:#AD2E08;" width="0.001" height="99.229"/> </g> </g>
</svg>