<!DOCTYPE svg PUBLIC "-//W3C//DTD SVG 1.1//EN" "http://www.w3.org/Graphics/SVG/1.1/DTD/svg11.dtd">
<!-- Uploaded to: SVG Repo, www.svgrepo.com, Transformed by: SVG Repo Mixer Tools -->
<svg fill="#90ce0e" height="800px" width="800px" version="1.1" id="Layer_1" xmlns="http://www.w3.org/2000/svg" xmlns:xlink="http://www.w3.org/1999/xlink" viewBox="0 0 512 512" xml:space="preserve">
<g id="SVGRepo_bgCarrier" stroke-width="0"/>
<g id="SVGRepo_tracerCarrier" stroke-linecap="round" stroke-linejoin="round"/>
<g id="SVGRepo_iconCarrier"> <g> <g> <polygon points="346.849,372.914 162.476,372.914 142.602,512 366.723,512 "/> </g> </g> <g> <g> <polygon points="393.974,69.956 434.474,0 125.424,0 131.85,58.326 77.526,58.326 77.526,235.635 108.873,235.635 108.873,89.673 135.299,89.673 163.041,341.567 343.693,341.567 348.656,304.023 265.179,304.023 265.179,272.677 352.805,272.677 357.653,236.105 265.179,236.105 265.179,204.758 361.801,204.758 366.566,168.73 265.179,168.73 265.179,137.383 370.714,137.383 375.395,102.045 375.824,101.303 265.179,101.303 265.179,69.956 "/> </g> </g> </g>
</svg>