<!DOCTYPE svg PUBLIC "-//W3C//DTD SVG 1.1//EN" "http://www.w3.org/Graphics/SVG/1.1/DTD/svg11.dtd">
<!-- Uploaded to: SVG Repo, www.svgrepo.com, Transformed by: SVG Repo Mixer Tools -->
<svg width="800px" height="800px" viewBox="0 0 257 257" xmlns="http://www.w3.org/2000/svg" xmlns:xlink="http://www.w3.org/1999/xlink" preserveAspectRatio="xMidYMid" fill="#000000" transform="rotate(90)">
<g id="SVGRepo_bgCarrier" stroke-width="0"/>
<g id="SVGRepo_tracerCarrier" stroke-linecap="round" stroke-linejoin="round"/>
<g id="SVGRepo_iconCarrier"> <defs> <style> .cls-3 { fill: #6c757d; } .cls-4 { fill: #96ce05; } .cls-5 { fill: #26292c; } .cls-6 { fill: #6c757d; } </style> </defs> <g id="dumbbell"> <path d="M107.713,83.671 C107.713,83.671 172.766,148.725 172.766,148.725 C172.766,148.725 148.725,172.766 148.725,172.766 C148.725,172.766 83.671,107.712 83.671,107.712 C83.671,107.712 107.713,83.671 107.713,83.671 Z" id="path-1" class="cls-3" fill-rule="evenodd"/> <path d="M133.168,215.193 C133.168,215.193 130.340,198.222 130.340,198.222 C129.808,194.862 128.865,188.383 133.875,183.373 C133.875,183.373 183.373,133.875 183.373,133.875 C188.383,128.866 194.862,129.808 198.222,130.340 C198.222,130.340 215.193,133.168 215.193,133.168 C215.193,133.168 133.168,215.193 133.168,215.193 ZM73.064,122.562 C68.054,127.572 61.575,126.629 58.215,126.097 C58.215,126.097 41.244,123.269 41.244,123.269 C41.244,123.269 123.269,41.244 123.269,41.244 C123.269,41.244 126.097,58.215 126.097,58.215 C126.629,61.575 127.571,68.054 122.562,73.064 C122.562,73.064 73.064,122.562 73.064,122.562 Z" id="path-2" class="cls-4" fill-rule="evenodd"/> <path d="M254.084,173.473 C254.084,173.473 173.473,254.084 173.473,254.084 C170.349,257.208 165.284,257.208 162.160,254.084 C162.160,254.084 132.461,224.385 132.461,224.385 C129.337,221.261 129.337,216.196 132.461,213.071 C132.461,213.071 213.071,132.461 213.071,132.461 C216.196,129.337 221.261,129.337 224.385,132.461 C224.385,132.461 254.084,162.160 254.084,162.160 C257.208,165.284 257.208,170.349 254.084,173.473 ZM43.366,123.976 C40.242,127.100 35.176,127.100 32.052,123.976 C32.052,123.976 2.354,94.277 2.354,94.277 C-0.771,91.153 -0.771,86.088 2.354,82.964 C2.354,82.964 82.964,2.354 82.964,2.354 C86.088,-0.771 91.153,-0.771 94.277,2.354 C94.277,2.354 123.976,32.052 123.976,32.052 C127.100,35.176 127.100,40.242 123.976,43.366 C123.976,43.366 43.366,123.976 43.366,123.976 Z" id="path-3" class="cls-5" fill-rule="evenodd"/> <path d="M244.184,218.728 C244.184,218.728 218.728,244.184 218.728,244.184 C217.166,245.746 214.634,245.746 213.071,244.184 C213.071,244.184 203.879,234.992 203.879,234.992 C203.879,234.992 234.992,203.879 234.992,203.879 C234.992,203.879 244.184,213.071 244.184,213.071 C245.746,214.633 245.746,217.166 244.184,218.728 ZM12.253,43.366 C10.691,41.804 10.691,39.271 12.253,37.709 C12.253,37.709 37.709,12.253 37.709,12.253 C39.271,10.691 41.804,10.691 43.366,12.253 C43.366,12.253 52.558,21.445 52.558,21.445 C52.558,21.445 21.446,52.558 21.446,52.558 C21.446,52.558 12.253,43.366 12.253,43.366 Z" id="path-4" class="cls-6" fill-rule="evenodd"/> </g> </g>
</svg>