<!DOCTYPE svg PUBLIC "-//W3C//DTD SVG 1.1//EN" "http://www.w3.org/Graphics/SVG/1.1/DTD/svg11.dtd">
<!-- Uploaded to: SVG Repo, www.svgrepo.com, Transformed by: SVG Repo Mixer Tools -->
<svg version="1.1" id="_x34_" xmlns="http://www.w3.org/2000/svg" xmlns:xlink="http://www.w3.org/1999/xlink" viewBox="0 0 512 512" xml:space="preserve" width="800px" height="800px" fill="#000000">
<g id="SVGRepo_bgCarrier" stroke-width="0"/>
<g id="SVGRepo_tracerCarrier" stroke-linecap="round" stroke-linejoin="round"/>
<g id="SVGRepo_iconCarrier"> <g> <g> <g> <rect x="205.135" y="126.02" style="fill:#EBEBEB;" width="77.82" height="41.194"/> <path style="fill:#EBEBEB;" d="M255.924,144.219v4.797c0,10.051-8.148,18.198-18.275,18.198H18.275 C8.148,167.214,0,159.067,0,149.016v-4.797c0-10.051,8.148-18.199,18.275-18.199h219.374 C247.776,126.02,255.924,134.168,255.924,144.219z"/> <path style="fill:#6bcff6;" d="M112.009,146.275c0,7.158-0.152,14.163-0.304,20.94c-1.066,31.448-4.492,58.404-9.137,75.003 c-1.675,5.787-3.502,10.279-5.406,13.325c-1.599,2.589-3.198,4.112-4.95,4.416c-0.304,0.152-0.533,0.152-0.838,0.152H44.925 c-3.274,0-6.396-4.34-9.213-12.031c-5.635-15.686-9.823-45.382-11.041-80.866c-0.153-6.777-0.304-13.782-0.304-20.94 c0-6.929,0.076-13.706,0.304-20.254c1.447-42.794,7.158-77.288,14.62-89.09c1.295-2.056,2.665-3.503,4.036-4.035 c0.533-0.229,1.066-0.381,1.599-0.381h46.449c0.304,0,0.533,0,0.838,0.152c1.751,0.304,3.35,1.827,4.95,4.417 c1.904,3.046,3.731,7.615,5.406,13.402c4.645,16.752,8.071,43.859,9.137,75.536C111.933,132.568,112.009,139.346,112.009,146.275 z"/> <path style="fill:#222323;" d="M110.791,146.275c0,7.158-0.076,14.163-0.304,20.94c-0.914,31.448-3.883,58.404-7.919,75.003 c-1.599,6.396-3.35,11.269-5.178,14.315c-1.447,2.36-2.97,3.579-4.492,3.579c-0.229,0-0.457,0-0.686-0.152 c-8.452-1.979-15.382-41.27-16.904-92.745c-0.229-6.777-0.305-13.782-0.305-20.94c0-6.929,0.076-13.706,0.305-20.254 c1.447-51.779,8.376-91.374,16.904-93.354c0.229-0.152,0.457-0.152,0.686-0.152c1.522,0,3.046,1.219,4.492,3.579 c1.827,3.046,3.579,7.919,5.178,14.392c4.112,16.752,7.081,43.859,7.919,75.536C110.715,132.568,110.791,139.346,110.791,146.275 z"/> <g> <path style="fill:#6bcff6;" d="M188.459,146.275c0,7.081-0.076,14.087-0.305,20.94c0,4.188-0.152,8.376-0.304,12.488 c-2.284,61.602-10.736,108.202-21.092,112.543c-0.533,0.304-1.066,0.381-1.599,0.381h-52.54 c-5.863,0-11.193-13.63-15.229-36.093c-0.152-0.305-0.152-0.686-0.228-0.99c-3.96-22.387-6.777-53.378-7.463-88.329 c-0.228-6.853-0.304-13.858-0.304-20.94c0-6.853,0.076-13.63,0.228-20.254c0.762-35.179,3.503-66.399,7.539-88.938 c0.076-0.305,0.076-0.686,0.228-0.99C101.425,13.63,106.755,0,112.618,0h52.54c0.533,0,1.066,0.076,1.599,0.381 c10.356,4.34,18.884,51.246,21.092,113.075c0.152,4.112,0.304,8.3,0.381,12.564 C188.383,132.645,188.459,139.422,188.459,146.275z"/> <path style="fill:#222323;" d="M191.581,146.275c0,7.081-0.076,14.087-0.304,20.94c0,4.112-0.152,8.148-0.304,12.107 c-2.361,64.952-11.574,113.304-22.615,113.304c-0.533,0-1.066-0.076-1.599-0.381c-11.041-4.645-19.95-57.338-21.397-125.031 c-0.228-6.853-0.305-13.858-0.305-20.94c0-6.853,0.076-13.63,0.229-20.254c1.523-67.998,10.432-120.995,21.473-125.64 C167.291,0.076,167.824,0,168.357,0c11.117,0,20.331,48.656,22.615,113.837c0.152,3.96,0.304,8.072,0.381,12.184 C191.505,132.645,191.581,139.422,191.581,146.275z"/> </g> <rect x="200.795" y="126.02" style="opacity:0.1;fill:#040000;" width="14.772" height="41.194"/> <path style="fill:#EBEBEB;" d="M204.678,125.716v41.804c0,6.168-3.96,11.269-8.833,11.269l-4.873,0.533l-3.122,0.381 l-23.224,2.741c-0.076,0-0.076,0-0.076,0c-0.304,0-0.457-0.228-0.457-0.609c0,0-1.294-4.036-2.132-14.62 c-0.381-5.178-0.685-11.955-0.685-20.635c0-7.843,0.381-14.848,0.914-20.559c0.837-8.985,1.904-14.696,1.904-14.696 c0-0.305,0.152-0.533,0.457-0.533c0-0.076,0-0.076,0.076-0.076l23.224,2.741l3.122,0.381l4.873,0.609 C200.718,114.446,204.678,119.548,204.678,125.716z"/> </g> <g> <rect x="229.045" y="126.02" style="fill:#EBEBEB;" width="77.82" height="41.194"/> <path style="fill:#EBEBEB;" d="M512,144.219v4.797c0,10.051-8.148,18.198-18.275,18.198H274.351c-0.99,0-1.98-0.076-2.894-0.228 c-8.756-1.371-15.381-8.909-15.381-17.97v-4.797c0-10.051,8.148-18.199,18.275-18.199h219.374 C503.852,126.02,512,134.168,512,144.219z"/> <path style="fill:#6bcff6;" d="M487.633,146.275c0,7.158-0.152,14.163-0.304,20.94c-0.076,1.675-0.152,3.274-0.229,4.95 c0,1.599-0.076,3.198-0.228,4.797c-0.229,4.797-0.533,9.442-0.837,14.01c-0.229,2.285-0.381,4.493-0.609,6.625 c-0.152,2.056-0.381,4.112-0.609,6.092c-0.914,8.985-2.132,17.209-3.427,24.366c-0.304,1.752-0.685,3.503-0.99,5.102 c-2.741,12.64-6.015,21.473-9.67,25.128c-0.305,0.304-0.609,0.533-0.914,0.761c-0.838,0.685-1.828,1.066-2.741,1.066h-46.448 c-0.152,0-0.304-0.076-0.457-0.076c-0.152,0-0.229,0-0.381-0.076c-0.076,0.076-0.152,0-0.229,0 c-1.675-0.457-3.198-1.979-4.721-4.416c-1.904-3.046-3.731-7.538-5.33-13.325c-4.721-16.6-8.148-43.555-9.213-75.003 c-0.152-6.777-0.305-13.782-0.305-20.94c0-6.929,0.076-13.706,0.305-20.254c1.066-31.677,4.492-58.784,9.213-75.536 c1.599-5.787,3.427-10.356,5.33-13.402c1.523-2.437,3.046-3.96,4.721-4.417c0.076,0,0.152-0.076,0.229,0 c0.152-0.076,0.228-0.076,0.381-0.076c0.152-0.076,0.304-0.076,0.457-0.076h46.448c0.305,0,0.609,0.076,0.914,0.152 c0.229,0,0.381,0.076,0.533,0.152c1.295,0.457,2.513,1.599,3.655,3.274c0.381,0.457,0.685,0.99,0.99,1.523 c1.218,2.132,2.436,4.797,3.502,8.071c0.305,0.761,0.533,1.522,0.762,2.361c1.904,6.091,3.579,13.63,4.949,22.463 c0.229,1.142,0.381,2.284,0.533,3.426c0.229,1.37,0.457,2.817,0.609,4.264c0.533,3.427,0.914,7.081,1.294,10.813 c0.152,1.371,0.304,2.817,0.457,4.264c0.304,2.894,0.533,5.863,0.762,8.833c0.228,3.046,0.457,6.092,0.609,9.29 c0.305,4.797,0.533,9.67,0.686,14.62C487.557,132.568,487.633,139.346,487.633,146.275z"/> <path style="fill:#222323;" d="M436.997,146.275c0,7.158-0.076,14.163-0.305,20.94c-1.523,51.017-8.3,90.08-16.676,92.745 c-0.076,0-0.152,0.076-0.228,0c-0.152,0.076-0.229,0.152-0.381,0.076c-0.076,0-0.152,0.076-0.305,0.076 c-0.457,0-0.914-0.152-1.371-0.381c-0.304-0.152-0.609-0.304-0.914-0.609c-0.761-0.533-1.447-1.371-2.132-2.513l-0.076-0.076 c-1.828-3.046-3.579-7.919-5.102-14.315c-4.112-16.6-7.081-43.555-7.995-75.003c-0.228-6.777-0.304-13.782-0.304-20.94 c0-6.929,0.076-13.706,0.304-20.254c0.838-31.677,3.807-58.784,7.995-75.536c1.523-6.473,3.274-11.346,5.102-14.392l0.076-0.076 c0.686-1.142,1.371-1.98,2.132-2.513c0.304-0.304,0.609-0.457,0.914-0.609c0.457-0.229,0.914-0.381,1.371-0.381 c0.152,0,0.229,0,0.305,0.076c0.152-0.076,0.228,0,0.381,0.076c0.076-0.076,0.152,0,0.228,0 c8.376,2.665,15.229,42.032,16.676,93.354C436.921,132.568,436.997,139.346,436.997,146.275z"/> <g> <path style="fill:#6bcff6;" d="M422.606,146.275c0,7.081-0.076,14.087-0.305,20.94c-0.685,34.951-3.502,65.942-7.462,88.329 c0,0.304-0.076,0.609-0.152,0.914c0,0.076-0.076,0.076-0.076,0.076c-0.076,0.914-0.229,1.827-0.457,2.665 c-0.305,1.827-0.686,3.579-1.066,5.254c-0.305,1.218-0.533,2.437-0.837,3.655c-0.533,2.36-1.142,4.645-1.752,6.701 c0,0,0,0.076,0,0.153c-0.609,1.98-1.218,3.807-1.751,5.482c-0.686,1.752-1.371,3.35-2.056,4.721 c-0.609,1.371-1.294,2.589-1.98,3.579c-0.381,0.533-0.685,0.99-1.066,1.371c-0.305,0.457-0.686,0.761-0.99,1.066 c-0.305,0.304-0.609,0.533-0.914,0.685c-0.229,0.152-0.457,0.305-0.685,0.381c-0.152,0.076-0.381,0.152-0.609,0.228 c-0.304,0.076-0.685,0.152-1.066,0.152h-52.54c-0.533,0-1.066-0.076-1.599-0.381c-0.076,0-0.076,0-0.152-0.076 c-10.28-4.721-18.656-51.17-20.94-112.467c-0.152-4.112-0.305-8.3-0.305-12.488c-0.228-6.853-0.304-13.858-0.304-20.94 c0-6.853,0.076-13.63,0.228-20.254c0.076-3.96,0.152-7.843,0.305-11.651c0-0.304,0.076-0.609,0.076-0.914 c2.208-61.83,10.736-108.735,21.092-113.075C345.775,0.076,346.308,0,346.841,0h52.54c5.635,0,10.812,12.564,14.772,33.427 c0.076,0.381,0.152,0.838,0.228,1.219c0.153,0.457,0.229,0.914,0.229,1.447c0,0,0.076,0,0.076,0.076 c0.076,0.304,0.152,0.609,0.152,0.914c4.036,22.539,6.777,53.758,7.538,88.938C422.529,132.645,422.606,139.422,422.606,146.275 z"/> <path style="fill:#222323;" d="M366.943,146.275c0,7.081-0.076,14.087-0.305,20.94c-1.447,67.389-10.279,119.929-21.244,124.955 c-0.076,0.076-0.076,0.076-0.152,0.076c-0.533,0.304-1.066,0.381-1.599,0.381c-0.381,0-0.686-0.076-1.066-0.152 c-0.152-0.076-0.304-0.076-0.533-0.228c-0.304-0.076-0.533-0.229-0.761-0.381c-2.589-1.599-5.026-5.939-7.31-12.412 c-1.142-3.35-2.284-7.31-3.35-11.802c0,0,0-0.076,0-0.152c-0.533-2.208-1.066-4.645-1.523-7.158 c-0.761-3.807-1.447-7.919-2.132-12.184c-0.914-5.787-1.752-12.031-2.437-18.731c0-0.381-0.076-0.838-0.152-1.295 c-0.228-2.893-0.533-5.863-0.838-8.909c-0.685-7.005-1.218-14.392-1.675-22.082c-0.076-1.979-0.228-3.883-0.304-5.863 c-0.228-3.883-0.381-7.919-0.533-11.955c-0.152-3.96-0.304-7.995-0.304-12.107c-0.229-6.853-0.304-13.858-0.304-20.94 c0-6.853,0.076-13.63,0.228-20.254c0.076-2.817,0.152-5.635,0.229-8.376c0-1.294,0.076-2.589,0.152-3.807 C323.312,48.656,332.526,0,343.643,0c0.533,0,1.066,0.076,1.599,0.381c8.071,3.35,14.925,32.438,18.732,74.165 c1.371,15.61,2.361,32.971,2.741,51.474C366.867,132.645,366.943,139.422,366.943,146.275z"/> </g> <rect x="296.433" y="126.02" style="opacity:0.1;fill:#040000;" width="14.772" height="41.194"/> <path style="fill:#EBEBEB;" d="M350.725,146.579c0,8.68-0.305,15.457-0.685,20.635c-0.837,10.584-2.132,14.62-2.132,14.62 c0,0.381-0.152,0.609-0.457,0.609c0,0,0,0-0.076,0l-23.224-2.741l-3.122-0.381l-4.873-0.533c-4.873,0-8.833-5.102-8.833-11.269 v-41.804c0-6.168,3.96-11.27,8.833-11.27l4.873-0.609l3.122-0.381l0.914-0.076l22.31-2.665c0.076,0,0.076,0,0.076,0.076 c0.304,0,0.457,0.228,0.457,0.533c0,0,1.066,5.711,1.904,14.696C350.344,131.731,350.725,138.736,350.725,146.579z"/> </g> </g> <path style="opacity:0.1;fill:#040000;" d="M512,144.219v4.797c0,10.051-8.148,18.198-18.275,18.198h-6.396 c-0.076,1.675-0.152,3.274-0.229,4.95c0,1.599-0.076,3.198-0.228,4.797c-0.229,4.797-0.533,9.442-0.837,14.01 c-0.229,2.209-0.381,4.417-0.609,6.625c-0.152,2.056-0.381,4.112-0.609,6.092c-0.914,8.985-2.132,17.209-3.427,24.366 c-0.304,1.752-0.685,3.503-0.99,5.102c-2.741,12.64-6.015,21.473-9.67,25.128c-0.305,0.304-0.609,0.533-0.914,0.761 c-0.838,0.685-1.828,1.066-2.741,1.066h-46.448c-0.152,0-0.304-0.076-0.457-0.076c0,0-0.076-0.076-0.152-0.076 s-0.152-0.076-0.228-0.076s-0.152,0.076-0.229,0.076c0,0-0.076,0.076-0.152,0.076c-0.076,0-0.152,0.076-0.305,0.076 c-0.457,0-0.914-0.152-1.371-0.381c-0.304-0.152-0.609-0.304-0.914-0.609c-0.761-0.609-1.447-1.523-2.132-2.665 c0,0.076,0,0.076,0,0.152c-0.228,0.914-0.381,1.752-0.533,2.589c-0.305,1.827-0.686,3.579-1.066,5.254 c-0.305,1.218-0.533,2.437-0.837,3.655c-0.533,2.36-1.142,4.569-1.752,6.701c0,0,0,0.076,0,0.153 c-0.609,1.98-1.218,3.807-1.751,5.482c-0.686,1.752-1.371,3.35-2.056,4.721c-0.609,1.371-1.294,2.589-1.98,3.579 c-0.381,0.533-0.685,0.99-1.066,1.371c-0.305,0.457-0.686,0.761-0.99,1.066c-0.305,0.304-0.609,0.533-0.914,0.685 c-0.229,0.152-0.457,0.305-0.685,0.381c-0.152,0.076-0.381,0.152-0.609,0.228c-0.304,0.076-0.685,0.152-1.066,0.152h-52.54 c-0.457,0-0.99-0.229-1.447-0.457c-0.076,0-0.076-0.076-0.152-0.076c-0.076,0-0.076,0.076-0.152,0.076 c-0.457,0.228-0.99,0.457-1.447,0.457c-0.381,0-0.686-0.076-1.066-0.152c-0.152-0.076-0.304-0.076-0.533-0.228 c-0.304-0.076-0.533-0.229-0.761-0.381c-2.589-1.599-5.026-5.939-7.31-12.412c-1.142-3.35-2.284-7.31-3.35-11.802 c0,0,0-0.076,0-0.152c-0.533-2.208-1.066-4.645-1.523-7.158c-0.761-3.807-1.447-7.919-2.132-12.184 c-0.837-5.787-1.675-12.031-2.437-18.731c0-0.381-0.076-0.838-0.152-1.295c-0.228-2.893-0.533-5.863-0.838-8.909 c-0.685-7.005-1.218-14.392-1.675-22.082c-0.076-1.979-0.228-3.883-0.304-5.863c-0.228-3.883-0.381-7.919-0.533-11.955 l-4.873-0.533c-4.873,0-8.833-5.102-8.833-11.269v-0.305h-36.093l41.194-41.194l8.453-8.376l3.198-3.274l0.99-0.99l38.91-38.834 l48.581-48.581c0.533,2.361,1.066,4.873,1.599,7.462c0.076,0.381,0.152,0.838,0.228,1.219c0.076,0.457,0.153,0.914,0.304,1.37 c0,0.076,0,0.076,0,0.153c0.686-1.142,1.371-2.056,2.132-2.665c0.304-0.304,0.609-0.457,0.914-0.609 c0.457-0.229,0.914-0.381,1.371-0.381c0.152,0,0.229,0,0.305,0.076c0.076,0,0.152,0.076,0.152,0.076 c0.076,0,0.152,0.076,0.229,0.076s0.152-0.076,0.228-0.076s0.152-0.076,0.152-0.076c0.152-0.076,0.304-0.076,0.457-0.076h46.448 c0.305,0,0.609,0.076,0.914,0.152c0.229,0,0.381,0.076,0.533,0.152c1.295,0.457,2.513,1.599,3.655,3.274 c0.381,0.457,0.685,0.99,0.99,1.523c1.218,2.132,2.436,4.797,3.502,8.071c0.305,0.761,0.533,1.522,0.762,2.361 c1.904,6.091,3.579,13.63,4.949,22.463c0.229,1.142,0.381,2.284,0.533,3.426c0.229,1.37,0.457,2.817,0.609,4.264 c0.533,3.427,0.914,7.081,1.294,10.813c0.152,1.371,0.304,2.817,0.457,4.264c0.304,2.894,0.533,5.863,0.762,8.833 c0.228,3.046,0.457,6.168,0.609,9.29c0.305,4.797,0.533,9.67,0.686,14.62h6.396C503.852,126.02,512,134.168,512,144.219z"/> </g> </g>
</svg>