<!DOCTYPE svg PUBLIC "-//W3C//DTD SVG 1.1//EN" "http://www.w3.org/Graphics/SVG/1.1/DTD/svg11.dtd">
<!-- Uploaded to: SVG Repo, www.svgrepo.com, Transformed by: SVG Repo Mixer Tools -->
<svg version="1.1" id="Layer_1" xmlns="http://www.w3.org/2000/svg" xmlns:xlink="http://www.w3.org/1999/xlink" viewBox="0 0 511.998 511.998" xml:space="preserve" width="800px" height="800px" fill="#000000">
<g id="SVGRepo_bgCarrier" stroke-width="0"/>
<g id="SVGRepo_tracerCarrier" stroke-linecap="round" stroke-linejoin="round"/>
<g id="SVGRepo_iconCarrier"> <g> <path style="fill:#434A54;" d="M266.671,501.326c0,5.891-4.781,10.672-10.672,10.672c-5.891,0-10.672-4.781-10.672-10.672 s4.781-10.672,10.672-10.672C261.89,490.654,266.671,495.436,266.671,501.326z"/> <path style="fill:#434A54;" d="M437.326,501.326c0,5.891-4.766,10.672-10.656,10.672s-10.672-4.781-10.672-10.672 s4.781-10.672,10.672-10.672S437.326,495.436,437.326,501.326z"/> </g> <path style="fill:#82b006;" d="M380.857,53.329h22.641c1.188-3.328,1.828-6.922,1.828-10.672c0-17.671-14.328-31.999-32-31.999 s-31.999,14.328-31.999,31.999c0,17.688,14.327,32,31.999,32c2.594,0,5.109-0.312,7.531-0.891V53.329z"/> <circle style="fill:#96ce02;" cx="319.999" cy="32" r="32"/> <polygon style="fill:#82b006;" points="192.921,310.047 176.03,248.312 278.921,220.156 295.811,281.891 "/> <rect x="287.999" y="42.657" style="fill:#AAB2BC;" width="106.67" height="192"/> <path style="fill:#96ce02;" d="M437.326,298.656H245.327c0,0-21.328-64-21.328-149.327H458.67 C458.67,234.656,437.326,298.656,437.326,298.656z"/> <path style="fill:#E6E9ED;" d="M458.67,490.654c0,5.891-4.781,10.672-10.672,10.672H234.671c-5.891,0-10.672-4.781-10.672-10.672 V288c0-5.891,4.781-10.672,10.672-10.672h42.656l10.672-127.999H394.67l10.656,127.999h42.672c5.891,0,10.672,4.781,10.672,10.672 V490.654z"/> <path style="fill:#434A54;" d="M426.67,53.329c0-5.891-4.781-10.672-10.672-10.672l0,0H266.671l0,0l0,0 c-5.89,0-10.672,4.781-10.672,10.672s4.782,10.672,10.672,10.672l0,0l0,0h149.327l0,0C421.889,64.001,426.67,59.22,426.67,53.329z"/> <path style="fill:#656D78;" d="M341.327,234.656c-17.672,0-32,14.328-32,32c0,17.688,14.328,32,32,32 c17.671,0,31.999-14.312,31.999-32C373.326,248.984,358.998,234.656,341.327,234.656L341.327,234.656z"/> <path style="fill:#434A54;" d="M351.998,256c0,5.891-4.78,10.656-10.671,10.656S330.671,261.89,330.671,256 s4.766-10.672,10.656-10.672S351.998,250.109,351.998,256z"/> <g> <path style="fill:#CCD1D9;" d="M351.998,202.656h-21.327c-5.891,0-10.672,4.781-10.672,10.672S324.78,224,330.671,224h21.327 c5.891,0,10.672-4.781,10.672-10.672S357.889,202.656,351.998,202.656z"/> <path style="fill:#CCD1D9;" d="M223.999,307.422v26.516c22.984,15.719,66.141,39.391,117.328,39.391 c51.202,0,94.343-23.672,117.343-39.391v-26.5C445.639,317.797,398.373,352,341.327,352 C284.499,352,237.061,317.781,223.999,307.422z"/> </g> <polygon style="fill:#E6E9ED;" points="191.999,511.998 64,511.998 42.672,320 213.327,320 "/> <polygon style="fill:#96ce02;" points="49.781,384 64,511.998 191.999,511.998 206.218,384 "/> <path style="fill:#CCD1D9;" d="M458.67,149.329H223.999c-5.891,0-10.672,4.781-10.672,10.672s4.781,10.656,10.672,10.656H458.67 c5.891,0,10.656-4.766,10.656-10.656S464.561,149.329,458.67,149.329z"/> </g>
</svg>