<!DOCTYPE svg PUBLIC "-//W3C//DTD SVG 1.1//EN" "http://www.w3.org/Graphics/SVG/1.1/DTD/svg11.dtd">
<!-- Uploaded to: SVG Repo, www.svgrepo.com, Transformed by: SVG Repo Mixer Tools -->
<svg version="1.1" id="Layer_1" xmlns="http://www.w3.org/2000/svg" xmlns:xlink="http://www.w3.org/1999/xlink" viewBox="0 0 512 512" xml:space="preserve" width="800px" height="800px" fill="#000000">
<g id="SVGRepo_bgCarrier" stroke-width="0"/>
<g id="SVGRepo_tracerCarrier" stroke-linecap="round" stroke-linejoin="round"/>
<g id="SVGRepo_iconCarrier"> <rect x="199.922" y="6.65" transform="matrix(-0.7071 -0.7071 0.7071 -0.7071 158.8855 657.5955)" style="fill:#9A4C00;" width="31.426" height="578.482"/> <rect x="213.339" y="12.207" transform="matrix(-0.7071 -0.7071 0.7071 -0.7071 164.4483 671.0129)" style="fill:#723700;" width="15.713" height="578.482"/> <path style="fill:#97ce03;" d="M410.963,101.401c0,0-0.155-0.215-0.414-0.62c-4.535-6.914-42.102-70.435,90.201-90.201 c0.406-0.066,0.806-0.126,1.218-0.184C481.279,151.909,410.963,101.401,410.963,101.401z"/> <path style="fill:#5c7d03;" d="M410.963,101.401c0,0-0.155-0.215-0.414-0.62L500.75,10.58c0.406-0.066,0.806-0.126,1.218-0.184 C481.279,151.909,410.963,101.401,410.963,101.401z"/> <path style="fill:#97ce03;" d="M386.701,143.944c0,0,0.101-0.245,0.309-0.679c3.486-7.497,37.685-72.894,124.19,29.143 c0.27,0.31,0.531,0.618,0.799,0.939C380.819,230.321,386.701,143.944,386.701,143.944z"/> <path style="fill:#5c7d03;" d="M386.701,143.944c0,0,0.101-0.245,0.309-0.679l124.19,29.143c0.27,0.31,0.531,0.618,0.799,0.939 C380.819,230.321,386.701,143.944,386.701,143.944z"/> <path style="fill:#97ce03;" d="M321.21,209.435c0,0,0.101-0.245,0.309-0.679c3.486-7.497,37.685-72.894,124.19,29.143 c0.27,0.31,0.531,0.618,0.799,0.939C315.329,295.811,321.21,209.435,321.21,209.435z"/> <path style="fill:#5c7d03;" d="M321.21,209.435c0,0,0.101-0.245,0.309-0.679l124.19,29.143c0.27,0.31,0.531,0.618,0.799,0.939 C315.329,295.811,321.21,209.435,321.21,209.435z"/> <path style="fill:#97ce03;" d="M255.719,274.926c0,0,0.101-0.245,0.309-0.679c3.487-7.497,37.684-72.894,124.19,29.143 c0.27,0.31,0.531,0.618,0.799,0.939C249.837,361.303,255.719,274.926,255.719,274.926z"/> <path style="fill:#5c7d03;" d="M255.719,274.926c0,0,0.101-0.245,0.309-0.679l124.19,29.143c0.27,0.31,0.531,0.618,0.799,0.939 C249.837,361.303,255.719,274.926,255.719,274.926z"/> <path style="fill:#97ce03;" d="M190.227,340.417c0,0,0.101-0.245,0.309-0.679c3.487-7.497,37.685-72.894,124.19,29.143 c0.27,0.31,0.531,0.618,0.799,0.939C184.346,426.794,190.227,340.417,190.227,340.417z"/> <path style="fill:#5c7d03;" d="M190.227,340.417c0,0,0.101-0.245,0.309-0.679l124.19,29.143c0.27,0.31,0.531,0.618,0.799,0.939 C184.346,426.794,190.227,340.417,190.227,340.417z"/> <path style="fill:#97ce03;" d="M124.737,405.909c0,0,0.101-0.245,0.309-0.679c3.486-7.497,37.685-72.894,124.19,29.143 c0.27,0.31,0.531,0.618,0.799,0.939C118.856,492.285,124.737,405.909,124.737,405.909z"/> <path style="fill:#5c7d03;" d="M124.737,405.909c0,0,0.101-0.245,0.309-0.679l124.19,29.143c0.27,0.31,0.531,0.618,0.799,0.939 C118.856,492.285,124.737,405.909,124.737,405.909z"/> <path style="fill:#97ce03;" d="M368.526,125.77c0,0,0.245-0.101,0.679-0.309c7.497-3.486,72.894-37.685-29.143-124.19 c-0.31-0.27-0.618-0.531-0.939-0.799C282.151,131.651,368.526,125.77,368.526,125.77z"/> <path style="fill:#5c7d03;" d="M368.526,125.77c0,0,0.245-0.101,0.679-0.309L340.062,1.271c-0.31-0.27-0.618-0.531-0.939-0.799 C282.151,131.651,368.526,125.77,368.526,125.77z"/> <path style="fill:#97ce03;" d="M303.036,191.261c0,0,0.245-0.101,0.679-0.309c7.497-3.487,72.894-37.685-29.143-124.19 c-0.31-0.27-0.618-0.531-0.939-0.799C216.659,197.142,303.036,191.261,303.036,191.261z"/> <path style="fill:#5c7d03;" d="M303.036,191.261c0,0,0.245-0.101,0.679-0.309l-29.143-124.19c-0.31-0.27-0.618-0.531-0.939-0.799 C216.659,197.142,303.036,191.261,303.036,191.261z"/> <path style="fill:#97ce03;" d="M237.545,256.752c0,0,0.245-0.101,0.679-0.309c7.497-3.487,72.894-37.685-29.143-124.19 c-0.31-0.27-0.618-0.531-0.939-0.799C151.168,262.634,237.545,256.752,237.545,256.752z"/> <path style="fill:#5c7d03;" d="M237.545,256.752c0,0,0.245-0.101,0.679-0.309l-29.143-124.19c-0.31-0.27-0.618-0.531-0.939-0.799 C151.168,262.634,237.545,256.752,237.545,256.752z"/> <path style="fill:#97ce03;" d="M172.053,322.243c0,0,0.245-0.101,0.679-0.309c7.497-3.486,72.894-37.685-29.143-124.19 c-0.31-0.27-0.618-0.531-0.939-0.799C85.677,328.124,172.053,322.243,172.053,322.243z"/> <path style="fill:#5c7d03;" d="M172.053,322.243c0,0,0.245-0.101,0.679-0.309l-29.143-124.19c-0.31-0.27-0.618-0.531-0.939-0.799 C85.677,328.124,172.053,322.243,172.053,322.243z"/> <path style="fill:#97ce03;" d="M106.563,387.734c0,0,0.245-0.101,0.679-0.309c7.497-3.486,72.894-37.685-29.143-124.19 c-0.31-0.27-0.618-0.531-0.939-0.799C20.186,393.616,106.563,387.734,106.563,387.734z"/> <path style="fill:#5c7d03;" d="M106.563,387.734c0,0,0.245-0.101,0.679-0.309l-29.143-124.19c-0.31-0.27-0.618-0.531-0.939-0.799 C20.186,393.616,106.563,387.734,106.563,387.734z"/> </g>
</svg>